<svg width="14" height="14" viewBox="0 0 14 14" fill="none" xmlns="http://www.w3.org/2000/svg">
<path d="M7.43774 14H6.56262C6.53319 13.9899 6.50294 13.9823 6.4722 13.9774C5.88079 13.9411 5.29759 13.8207 4.7402 13.6198C2.19678 12.6785 0.653175 10.8786 0.109389 8.21991C0.0565178 7.96255 0.0364631 7.69899 0 7.43834V6.56346C0.00802188 6.52372 0.0182315 6.48435 0.0240656 6.44425C0.071103 6.12966 0.098815 5.81069 0.166272 5.50047C1.00675 1.64222 4.89809 -0.758611 8.72452 0.217981C12.3406 1.14099 14.5951 4.72547 13.8614 8.39124C13.3006 11.2007 11.0294 13.4127 8.20565 13.8925C7.95114 13.9358 7.69371 13.9635 7.43774 14ZM1.16901 6.99033C1.16901 10.2223 3.77648 12.836 6.99252 12.8309C7.75983 12.8315 8.51973 12.6808 9.2287 12.3874C9.93767 12.094 10.5818 11.6637 11.1241 11.1211C11.6665 10.5784 12.0965 9.93416 12.3894 9.22516C12.6824 8.51616 12.8326 7.75634 12.8314 6.98923C12.8292 3.77476 10.2191 1.17051 6.99945 1.17051C3.77976 1.17051 1.16755 3.7795 1.16901 6.99033Z" fill="white"/>
<path d="M7.43774 14H6.56262C6.53319 13.9899 6.50294 13.9823 6.4722 13.9774C5.88079 13.9411 5.29759 13.8207 4.7402 13.6198C2.19678 12.6785 0.653175 10.8786 0.109389 8.21991C0.0565178 7.96255 0.0364631 7.69899 0 7.43834V6.56346C0.00802188 6.52372 0.0182315 6.48435 0.0240656 6.44425C0.071103 6.12966 0.098815 5.81069 0.166272 5.50047C1.00675 1.64222 4.89809 -0.758611 8.72452 0.217981C12.3406 1.14099 14.5951 4.72547 13.8614 8.39124C13.3006 11.2007 11.0294 13.4127 8.20565 13.8925C7.95114 13.9358 7.69371 13.9635 7.43774 14ZM1.16901 6.99033C1.16901 10.2223 3.77648 12.836 6.99252 12.8309C7.75983 12.8315 8.51973 12.6808 9.2287 12.3874C9.93767 12.094 10.5818 11.6637 11.1241 11.1211C11.6665 10.5784 12.0965 9.93416 12.3894 9.22516C12.6824 8.51616 12.8326 7.75634 12.8314 6.98923C12.8292 3.77476 10.2191 1.17051 6.99945 1.17051C3.77976 1.17051 1.16755 3.7795 1.16901 6.99033Z" fill="white"/>
<path d="M7.58078 8.17668C7.58078 8.94658 7.58443 9.71612 7.58078 10.4857C7.57823 10.9169 7.17532 11.195 6.78771 11.0427C6.55836 10.9526 6.42308 10.7456 6.42089 10.4729C6.41907 9.83532 6.42089 9.19702 6.42089 8.55981C6.42089 7.65831 6.41871 6.75645 6.42089 5.85459C6.42272 5.43209 6.79501 5.15541 7.18151 5.28008C7.43056 5.36064 7.58042 5.57608 7.58261 5.86771C7.58224 6.63615 7.58078 7.40715 7.58078 8.17668Z" fill="white"/>
<path d="M7.00029 4.08183C6.88552 4.08197 6.77329 4.04808 6.67779 3.98444C6.58229 3.9208 6.50782 3.83027 6.4638 3.7243C6.41978 3.61834 6.40819 3.5017 6.43049 3.38915C6.45279 3.2766 6.50799 3.17319 6.58909 3.092C6.67019 3.01082 6.77356 2.95551 6.88612 2.93307C6.99867 2.91064 7.11535 2.92208 7.2214 2.96595C7.32744 3.00983 7.41809 3.08417 7.48187 3.17956C7.54565 3.27495 7.57969 3.38711 7.57969 3.50185C7.58057 3.5782 7.56619 3.65395 7.53739 3.72466C7.50859 3.79538 7.46596 3.85963 7.41199 3.91365C7.35802 3.96768 7.2938 4.01038 7.22311 4.03926C7.15241 4.06814 7.07666 4.08261 7.00029 4.08183Z" fill="white"/>
</svg>
