<svg width="176" height="100" viewBox="0 0 176 100" fill="none" xmlns="http://www.w3.org/2000/svg">
<path d="M11.48 24.02L12.04 31.09L11.76 29.97C12.6933 27.8233 14.21 26.12 16.31 24.86C18.41 23.5533 20.8367 22.9 23.59 22.9C26.3433 22.9 28.5833 23.7167 30.31 25.35C32.0833 26.9367 32.9933 29.0133 33.04 31.58V53H26.46V33.89C26.4133 32.3033 25.9467 31.02 25.06 30.04C24.22 29.0133 22.89 28.5 21.07 28.5C19.39 28.5 17.8733 28.9667 16.52 29.9C15.1667 30.8333 14.0933 32.1167 13.3 33.75C12.5533 35.3833 12.18 37.2733 12.18 39.42V53H5.67V24.02H11.48ZM50.2414 38.23C50.2414 35.3367 50.9181 32.7233 52.2714 30.39C53.6714 28.0567 55.5847 26.2133 58.0114 24.86C60.4381 23.5067 63.1914 22.83 66.2714 22.83C69.4447 22.83 72.2214 23.5067 74.6014 24.86C76.9814 26.2133 78.8247 28.0567 80.1314 30.39C81.4381 32.7233 82.0914 35.3367 82.0914 38.23C82.0914 41.1233 81.4381 43.76 80.1314 46.14C78.8247 48.4733 76.9581 50.3167 74.5314 51.67C72.1514 53.0233 69.3747 53.7 66.2014 53.7C63.1214 53.7 60.3681 53.07 57.9414 51.81C55.5614 50.5033 53.6714 48.7067 52.2714 46.42C50.9181 44.0867 50.2414 41.3567 50.2414 38.23ZM56.7514 38.3C56.7514 40.1667 57.1714 41.87 58.0114 43.41C58.8514 44.9033 59.9714 46.0933 61.3714 46.98C62.8181 47.8667 64.4047 48.31 66.1314 48.31C67.9514 48.31 69.5614 47.8667 70.9614 46.98C72.4081 46.0933 73.5281 44.9033 74.3214 43.41C75.1147 41.87 75.5114 40.1667 75.5114 38.3C75.5114 36.4333 75.1147 34.7533 74.3214 33.26C73.5281 31.72 72.4081 30.5067 70.9614 29.62C69.5614 28.6867 67.9514 28.22 66.1314 28.22C64.3581 28.22 62.7481 28.6867 61.3014 29.62C59.9014 30.5533 58.7814 31.79 57.9414 33.33C57.1481 34.8233 56.7514 36.48 56.7514 38.3ZM110.177 53.84L94.0773 24.02H101.777L112.697 47.05L108.707 46.91L118.717 24.02H125.997L110.527 53.84H110.177ZM152.353 53.7C149.647 53.7 147.173 53.1167 144.933 51.95C142.74 50.7833 140.99 49.08 139.683 46.84C138.423 44.5533 137.793 41.7767 137.793 38.51C137.793 35.29 138.47 32.5133 139.823 30.18C141.177 27.8 142.973 25.98 145.213 24.72C147.5 23.46 149.997 22.83 152.703 22.83C155.41 22.83 157.697 23.46 159.563 24.72C161.43 25.9333 162.853 27.38 163.833 29.06L163.413 30.18L164.043 24.02H170.063V53H163.553V45.44L164.253 47.12C164.067 47.5867 163.647 48.1933 162.993 48.94C162.387 49.64 161.547 50.3633 160.473 51.11C159.447 51.8567 158.257 52.4867 156.903 53C155.55 53.4667 154.033 53.7 152.353 53.7ZM154.103 48.31C155.737 48.31 157.207 48.0067 158.513 47.4C159.82 46.7933 160.893 45.9533 161.733 44.88C162.62 43.76 163.227 42.43 163.553 40.89V35.22C163.18 33.82 162.527 32.6067 161.593 31.58C160.66 30.5067 159.54 29.69 158.233 29.13C156.927 28.5233 155.48 28.22 153.893 28.22C152.167 28.22 150.58 28.64 149.133 29.48C147.687 30.32 146.52 31.4867 145.633 32.98C144.793 34.4733 144.373 36.2233 144.373 38.23C144.373 40.0967 144.817 41.8 145.703 43.34C146.59 44.88 147.78 46.0933 149.273 46.98C150.767 47.8667 152.377 48.31 154.103 48.31Z" fill="white"/>
<path d="M14.47 94.105C13.78 94.105 13.16 93.985 12.61 93.745C12.07 93.495 11.645 93.155 11.335 92.725C11.025 92.285 10.865 91.78 10.855 91.21H12.31C12.36 91.7 12.56 92.115 12.91 92.455C13.27 92.785 13.79 92.95 14.47 92.95C15.12 92.95 15.63 92.79 16 92.47C16.38 92.14 16.57 91.72 16.57 91.21C16.57 90.81 16.46 90.485 16.24 90.235C16.02 89.985 15.745 89.795 15.415 89.665C15.085 89.535 14.64 89.395 14.08 89.245C13.39 89.065 12.835 88.885 12.415 88.705C12.005 88.525 11.65 88.245 11.35 87.865C11.06 87.475 10.915 86.955 10.915 86.305C10.915 85.735 11.06 85.23 11.35 84.79C11.64 84.35 12.045 84.01 12.565 83.77C13.095 83.53 13.7 83.41 14.38 83.41C15.36 83.41 16.16 83.655 16.78 84.145C17.41 84.635 17.765 85.285 17.845 86.095H16.345C16.295 85.695 16.085 85.345 15.715 85.045C15.345 84.735 14.855 84.58 14.245 84.58C13.675 84.58 13.21 84.73 12.85 85.03C12.49 85.32 12.31 85.73 12.31 86.26C12.31 86.64 12.415 86.95 12.625 87.19C12.845 87.43 13.11 87.615 13.42 87.745C13.74 87.865 14.185 88.005 14.755 88.165C15.445 88.355 16 88.545 16.42 88.735C16.84 88.915 17.2 89.2 17.5 89.59C17.8 89.97 17.95 90.49 17.95 91.15C17.95 91.66 17.815 92.14 17.545 92.59C17.275 93.04 16.875 93.405 16.345 93.685C15.815 93.965 15.19 94.105 14.47 94.105ZM34.4937 94.135C33.7237 94.135 33.0237 93.96 32.3937 93.61C31.7737 93.26 31.2837 92.765 30.9237 92.125C30.5737 91.475 30.3987 90.725 30.3987 89.875C30.3987 89.035 30.5787 88.295 30.9387 87.655C31.3087 87.005 31.8087 86.51 32.4387 86.17C33.0687 85.82 33.7737 85.645 34.5537 85.645C35.3337 85.645 36.0387 85.82 36.6687 86.17C37.2987 86.51 37.7937 87 38.1537 87.64C38.5237 88.28 38.7087 89.025 38.7087 89.875C38.7087 90.725 38.5187 91.475 38.1387 92.125C37.7687 92.765 37.2637 93.26 36.6237 93.61C35.9837 93.96 35.2737 94.135 34.4937 94.135ZM34.4937 92.935C34.9837 92.935 35.4437 92.82 35.8737 92.59C36.3037 92.36 36.6487 92.015 36.9087 91.555C37.1787 91.095 37.3137 90.535 37.3137 89.875C37.3137 89.215 37.1837 88.655 36.9237 88.195C36.6637 87.735 36.3237 87.395 35.9037 87.175C35.4837 86.945 35.0287 86.83 34.5387 86.83C34.0387 86.83 33.5787 86.945 33.1587 87.175C32.7487 87.395 32.4187 87.735 32.1687 88.195C31.9187 88.655 31.7937 89.215 31.7937 89.875C31.7937 90.545 31.9137 91.11 32.1537 91.57C32.4037 92.03 32.7337 92.375 33.1437 92.605C33.5537 92.825 34.0037 92.935 34.4937 92.935ZM52.8184 82.9V94H51.4534V82.9H52.8184ZM73.3848 85.78V94H72.0198V92.785C71.7598 93.205 71.3948 93.535 70.9248 93.775C70.4648 94.005 69.9548 94.12 69.3948 94.12C68.7548 94.12 68.1798 93.99 67.6698 93.73C67.1598 93.46 66.7548 93.06 66.4548 92.53C66.1648 92 66.0198 91.355 66.0198 90.595V85.78H67.3698V90.415C67.3698 91.225 67.5748 91.85 67.9848 92.29C68.3948 92.72 68.9548 92.935 69.6648 92.935C70.3948 92.935 70.9698 92.71 71.3898 92.26C71.8098 91.81 72.0198 91.155 72.0198 90.295V85.78H73.3848ZM88.3046 86.905V91.75C88.3046 92.15 88.3896 92.435 88.5596 92.605C88.7296 92.765 89.0246 92.845 89.4446 92.845H90.4496V94H89.2196C88.4596 94 87.8896 93.825 87.5096 93.475C87.1296 93.125 86.9396 92.55 86.9396 91.75V86.905H85.8746V85.78H86.9396V83.71H88.3046V85.78H90.4496V86.905H88.3046ZM103.758 84.445C103.498 84.445 103.278 84.355 103.098 84.175C102.918 83.995 102.828 83.775 102.828 83.515C102.828 83.255 102.918 83.035 103.098 82.855C103.278 82.675 103.498 82.585 103.758 82.585C104.008 82.585 104.218 82.675 104.388 82.855C104.568 83.035 104.658 83.255 104.658 83.515C104.658 83.775 104.568 83.995 104.388 84.175C104.218 84.355 104.008 84.445 103.758 84.445ZM104.418 85.78V94H103.053V85.78H104.418ZM121.28 94.135C120.51 94.135 119.81 93.96 119.18 93.61C118.56 93.26 118.07 92.765 117.71 92.125C117.36 91.475 117.185 90.725 117.185 89.875C117.185 89.035 117.365 88.295 117.725 87.655C118.095 87.005 118.595 86.51 119.225 86.17C119.855 85.82 120.56 85.645 121.34 85.645C122.12 85.645 122.825 85.82 123.455 86.17C124.085 86.51 124.58 87 124.94 87.64C125.31 88.28 125.495 89.025 125.495 89.875C125.495 90.725 125.305 91.475 124.925 92.125C124.555 92.765 124.05 93.26 123.41 93.61C122.77 93.96 122.06 94.135 121.28 94.135ZM121.28 92.935C121.77 92.935 122.23 92.82 122.66 92.59C123.09 92.36 123.435 92.015 123.695 91.555C123.965 91.095 124.1 90.535 124.1 89.875C124.1 89.215 123.97 88.655 123.71 88.195C123.45 87.735 123.11 87.395 122.69 87.175C122.27 86.945 121.815 86.83 121.325 86.83C120.825 86.83 120.365 86.945 119.945 87.175C119.535 87.395 119.205 87.735 118.955 88.195C118.705 88.655 118.58 89.215 118.58 89.875C118.58 90.545 118.7 91.11 118.94 91.57C119.19 92.03 119.52 92.375 119.93 92.605C120.34 92.825 120.79 92.935 121.28 92.935ZM142.245 85.63C143.245 85.63 144.055 85.935 144.675 86.545C145.295 87.145 145.605 88.015 145.605 89.155V94H144.255V89.35C144.255 88.53 144.05 87.905 143.64 87.475C143.23 87.035 142.67 86.815 141.96 86.815C141.24 86.815 140.665 87.04 140.235 87.49C139.815 87.94 139.605 88.595 139.605 89.455V94H138.24V85.78H139.605V86.95C139.875 86.53 140.24 86.205 140.7 85.975C141.17 85.745 141.685 85.63 142.245 85.63ZM161.694 94.135C161.064 94.135 160.499 94.03 159.999 93.82C159.499 93.6 159.104 93.3 158.814 92.92C158.524 92.53 158.364 92.085 158.334 91.585H159.744C159.784 91.995 159.974 92.33 160.314 92.59C160.664 92.85 161.119 92.98 161.679 92.98C162.199 92.98 162.609 92.865 162.909 92.635C163.209 92.405 163.359 92.115 163.359 91.765C163.359 91.405 163.199 91.14 162.879 90.97C162.559 90.79 162.064 90.615 161.394 90.445C160.784 90.285 160.284 90.125 159.894 89.965C159.514 89.795 159.184 89.55 158.904 89.23C158.634 88.9 158.499 88.47 158.499 87.94C158.499 87.52 158.624 87.135 158.874 86.785C159.124 86.435 159.479 86.16 159.939 85.96C160.399 85.75 160.924 85.645 161.514 85.645C162.424 85.645 163.159 85.875 163.719 86.335C164.279 86.795 164.579 87.425 164.619 88.225H163.254C163.224 87.795 163.049 87.45 162.729 87.19C162.419 86.93 161.999 86.8 161.469 86.8C160.979 86.8 160.589 86.905 160.299 87.115C160.009 87.325 159.864 87.6 159.864 87.94C159.864 88.21 159.949 88.435 160.119 88.615C160.299 88.785 160.519 88.925 160.779 89.035C161.049 89.135 161.419 89.25 161.889 89.38C162.479 89.54 162.959 89.7 163.329 89.86C163.699 90.01 164.014 90.24 164.274 90.55C164.544 90.86 164.684 91.265 164.694 91.765C164.694 92.215 164.569 92.62 164.319 92.98C164.069 93.34 163.714 93.625 163.254 93.835C162.804 94.035 162.284 94.135 161.694 94.135Z" fill="white"/>
</svg>
